<?xml version="1.0" standalone="no"?>
<!DOCTYPE svg PUBLIC "-//W3C//DTD SVG 20010904//EN"
 "http://www.w3.org/TR/2001/REC-SVG-20010904/DTD/svg10.dtd">
<svg version="1.0" xmlns="http://www.w3.org/2000/svg"
 width="512.000000pt" height="512.000000pt" viewBox="0 0 512.000000 512.000000"
 preserveAspectRatio="xMidYMid meet">
<metadata>
Created by potrace 1.14, written by Peter Selinger 2001-2017
</metadata>
<g transform="translate(0.000000,512.000000) scale(0.100000,-0.100000)"
fill="#000000" stroke="none">
<path d="M2484 4190 c-49 -20 -54 -41 -54 -247 0 -187 1 -193 24 -219 30 -36
86 -39 119 -6 21 22 22 29 22 227 0 191 -1 206 -20 224 -25 24 -63 33 -91 21z"/>
<path d="M1648 3950 c-24 -24 -29 -37 -25 -58 8 -39 172 -322 203 -349 35 -32
70 -29 106 7 24 24 29 37 25 58 -7 32 -169 316 -200 350 -30 32 -72 29 -109
-8z"/>
<path d="M3278 3968 c-25 -20 -208 -344 -208 -368 0 -30 53 -80 84 -80 14 0
36 10 50 23 31 27 206 333 206 359 0 11 -13 33 -29 49 -32 31 -75 38 -103 17z"/>
<path d="M2376 3480 c-476 -75 -820 -451 -852 -930 -11 -159 26 -352 93 -483
l24 -49 -35 -81 c-94 -221 -84 -449 29 -654 58 -104 188 -228 295 -281 164
-80 120 -77 1050 -77 824 0 825 0 895 22 100 32 187 87 264 168 78 83 124 165
151 271 48 187 0 386 -129 542 -56 67 -174 151 -248 177 -45 15 -50 20 -85 93
-51 105 -129 204 -220 278 -41 34 -80 63 -87 65 -6 2 -16 40 -22 84 -56 403
-349 732 -747 836 -89 24 -284 33 -376 19z m369 -190 c236 -75 420 -235 520
-453 27 -58 65 -176 65 -200 0 -2 -26 2 -57 10 -91 23 -290 20 -388 -6 -158
-42 -293 -121 -408 -239 -58 -59 -59 -59 -100 -51 -177 34 -405 -24 -562 -144
l-60 -45 -17 43 c-35 89 -51 202 -46 329 4 105 10 135 40 223 73 213 205 368
398 467 154 79 232 96 410 92 105 -3 150 -9 205 -26z m495 -802 c25 -5 88 -30
140 -55 81 -39 107 -58 180 -132 71 -71 93 -102 128 -176 24 -49 49 -101 55
-114 9 -17 31 -30 77 -45 89 -29 146 -64 207 -128 92 -98 130 -204 120 -341
-13 -196 -167 -371 -356 -407 -33 -6 -345 -10 -825 -10 -843 0 -837 0 -954 59
-186 94 -299 265 -309 471 -15 280 167 517 442 575 90 19 138 19 232 -1 42 -8
86 -13 98 -10 13 3 48 37 78 75 166 205 435 298 687 239z"/>
<path d="M1061 3364 c-34 -28 -42 -76 -18 -106 18 -25 341 -208 365 -208 30 0
71 40 78 76 4 24 0 37 -18 57 -27 30 -334 207 -359 207 -10 0 -31 -12 -48 -26z"/>
<path d="M3880 3377 c-108 -57 -313 -182 -325 -200 -23 -33 -18 -66 15 -99 24
-24 37 -29 59 -25 32 7 315 168 349 200 31 29 29 72 -7 108 -32 32 -53 36 -91
16z"/>
<path d="M864 2570 c-29 -11 -54 -49 -54 -78 0 -13 13 -37 29 -53 l29 -29 196
0 c189 0 196 1 221 23 35 29 37 89 6 121 -20 20 -33 21 -214 23 -105 1 -202
-2 -213 -7z"/>
<path d="M3760 2567 c-54 -28 -61 -99 -13 -137 24 -18 41 -20 219 -20 189 0
194 1 220 24 36 30 39 86 6 119 -22 21 -31 22 -215 25 -142 2 -198 -1 -217
-11z"/>
<path d="M1355 1919 c-115 -62 -302 -173 -312 -187 -39 -48 12 -139 72 -129
40 7 323 171 353 204 30 33 24 78 -14 111 -31 27 -49 28 -99 1z"/>
</g>
</svg>
